<?xml version="1.0" encoding="UTF-8"?>
<svg xmlns="http://www.w3.org/2000/svg" xmlns:xlink="http://www.w3.org/1999/xlink" width="32px" height="41px" viewBox="0 0 32 40" version="1.1">
<g id="surface1">
<path style=" stroke:none;fill-rule:evenodd;fill:rgb(30.19608%,63.529414%,100%);fill-opacity:1;" d="M 25.609375 16.683594 C 27.273438 18.722656 28.277344 21.316406 28.277344 24.128906 C 28.277344 26.941406 27.253906 29.609375 25.535156 31.671875 L 25.386719 31.847656 L 25.34375 31.621094 C 25.3125 31.433594 25.269531 31.234375 25.226562 31.035156 C 24.375 27.359375 21.578125 24.203125 16.96875 21.640625 C 13.867188 19.921875 12.085938 17.847656 11.617188 15.496094 C 11.316406 13.972656 11.542969 12.441406 11.96875 11.128906 C 12.40625 9.816406 13.046875 8.722656 13.589844 8.066406 L 15.382812 5.933594 C 15.691406 5.558594 16.289062 5.558594 16.597656 5.933594 Z M 28.4375 14.546875 L 16.449219 0.234375 C 16.222656 -0.0351562 15.785156 -0.0351562 15.5625 0.234375 L 3.5625 14.546875 L 3.519531 14.597656 C 1.324219 17.277344 0 20.671875 0 24.371094 C 0 32.984375 7.167969 39.972656 16 39.972656 C 24.832031 39.972656 32 32.984375 32 24.371094 C 32 20.671875 30.675781 17.277344 28.46875 14.597656 Z M 6.433594 16.640625 L 7.5 15.359375 L 7.53125 15.597656 C 7.550781 15.785156 7.585938 15.972656 7.625 16.160156 C 8.320312 19.714844 10.804688 22.683594 14.945312 24.972656 C 18.550781 26.972656 20.640625 29.277344 21.246094 31.808594 C 21.503906 32.859375 21.546875 33.902344 21.441406 34.808594 L 21.429688 34.859375 L 21.375 34.878906 C 19.753906 35.652344 17.921875 36.089844 15.988281 36.089844 C 9.214844 36.089844 3.722656 30.734375 3.722656 24.128906 C 3.722656 21.296875 4.734375 18.683594 6.433594 16.640625 Z M 6.433594 16.640625 "/>
</g>
</svg>
