<?xml version="1.0" encoding="UTF-8"?>
<svg xmlns="http://www.w3.org/2000/svg" xmlns:xlink="http://www.w3.org/1999/xlink" width="32px" height="32px" viewBox="0 0 32 32" version="1.1">
<g id="surface1">
<path style=" stroke:none;fill-rule:nonzero;fill:rgb(0%,59.607846%,91.764706%);fill-opacity:1;" d="M 16 32 C 24.855469 32 32 24.855469 32 16 C 32 7.144531 24.855469 0 16 0 C 7.144531 0 0 7.144531 0 16 C 0 24.855469 7.144531 32 16 32 Z M 16 32 "/>
<path style=" stroke:none;fill-rule:nonzero;fill:rgb(100%,100%,100%);fill-opacity:1;" d="M 21.484375 8.914062 L 10.515625 8.914062 C 8.515625 8.914062 7.257812 11.085938 8.230469 12.855469 L 14.972656 24.570312 C 15.429688 25.3125 16.515625 25.3125 16.972656 24.570312 L 23.714844 12.855469 C 24.742188 11.085938 23.484375 8.914062 21.484375 8.914062 Z M 15.027344 21.027344 L 13.542969 18.171875 L 10 11.828125 C 9.769531 11.429688 10.058594 10.914062 10.570312 10.914062 L 15.027344 10.914062 Z M 22 11.828125 L 18.457031 18.171875 L 16.972656 21.027344 L 16.972656 10.914062 L 21.429688 10.914062 C 21.941406 10.914062 22.230469 11.429688 22 11.828125 Z M 22 11.828125 "/>
</g>
</svg>
